<?xml version="1.0" encoding="UTF-8" standalone="no"?><svg xmlns="http://www.w3.org/2000/svg" xmlns:xlink="http://www.w3.org/1999/xlink" contentScriptType="application/ecmascript" contentStyleType="text/css" height="213px" preserveAspectRatio="none" style="width:165px;height:213px;" version="1.1" viewBox="0 0 165 213" width="165px" zoomAndPan="magnify"><defs><filter height="300%" id="fd32d7qpdmm7t" width="300%" x="-1" y="-1"><feGaussianBlur result="blurOut" stdDeviation="2.0"/><feColorMatrix in="blurOut" result="blurOut2" type="matrix" values="0 0 0 0 0 0 0 0 0 0 0 0 0 0 0 0 0 0 .4 0"/><feOffset dx="4.0" dy="4.0" in="blurOut2" result="blurOut3"/><feBlend in="SourceGraphic" in2="blurOut3" mode="normal"/></filter></defs><g><text fill="#000000" font-family="sans-serif" font-size="18" lengthAdjust="spacingAndGlyphs" textLength="90" x="41" y="17.4023">依赖与控制</text><!--class Main--><rect fill="#F8F8F8" filter="url(#fd32d7qpdmm7t)" height="48" id="Main" style="stroke: #383838; stroke-width: 1.5;" width="59" x="53.8066" y="29.1992"/><ellipse cx="68.8066" cy="45.1992" fill="#C2C2C2" rx="11" ry="11" style="stroke: #383838; stroke-width: 1.0;"/><path d="M71.2797,51.3423 Q70.6987,51.6411 70.0595,51.7905 Q69.4204,51.9399 68.7148,51.9399 Q66.208,51.9399 64.8881,50.2881 Q63.5683,48.6362 63.5683,45.5151 Q63.5683,42.3857 64.8881,40.7339 Q66.208,39.082 68.7148,39.082 Q69.4204,39.082 70.0678,39.2314 Q70.7153,39.3809 71.2797,39.6797 L71.2797,42.4023 Q70.6489,41.8213 70.0554,41.5515 Q69.4619,41.2817 68.831,41.2817 Q67.4863,41.2817 66.8015,42.3484 Q66.1167,43.415 66.1167,45.5151 Q66.1167,47.6069 66.8015,48.6736 Q67.4863,49.7402 68.831,49.7402 Q69.4619,49.7402 70.0554,49.4705 Q70.6489,49.2007 71.2797,48.6196 Z "/><text fill="#000000" font-family="sans-serif" font-size="12" lengthAdjust="spacingAndGlyphs" textLength="27" x="82.8066" y="49.7344">Main</text><line style="stroke: #383838; stroke-width: 1.5;" x1="54.8066" x2="111.8066" y1="61.1992" y2="61.1992"/><line style="stroke: #383838; stroke-width: 1.5;" x1="54.8066" x2="111.8066" y1="69.1992" y2="69.1992"/><!--class A--><rect fill="#F8F8F8" filter="url(#fd32d7qpdmm7t)" height="48" id="A" style="stroke: #383838; stroke-width: 1.5;" width="40" x="22.3066" y="154.1992"/><ellipse cx="37.3066" cy="170.1992" fill="#C2C2C2" rx="11" ry="11" style="stroke: #383838; stroke-width: 1.0;"/><path d="M39.7797,176.3423 Q39.1987,176.6411 38.5595,176.7905 Q37.9204,176.9399 37.2148,176.9399 Q34.708,176.9399 33.3881,175.2881 Q32.0683,173.6362 32.0683,170.5151 Q32.0683,167.3857 33.3881,165.7339 Q34.708,164.082 37.2148,164.082 Q37.9204,164.082 38.5678,164.2314 Q39.2153,164.3809 39.7797,164.6797 L39.7797,167.4023 Q39.1489,166.8213 38.5554,166.5515 Q37.9619,166.2817 37.331,166.2817 Q35.9863,166.2817 35.3015,167.3484 Q34.6167,168.415 34.6167,170.5151 Q34.6167,172.6069 35.3015,173.6736 Q35.9863,174.7402 37.331,174.7402 Q37.9619,174.7402 38.5554,174.4705 Q39.1489,174.2007 39.7797,173.6196 Z "/><text fill="#000000" font-family="sans-serif" font-size="12" lengthAdjust="spacingAndGlyphs" textLength="8" x="51.3066" y="174.7344">A</text><line style="stroke: #383838; stroke-width: 1.5;" x1="23.3066" x2="61.3066" y1="186.1992" y2="186.1992"/><line style="stroke: #383838; stroke-width: 1.5;" x1="23.3066" x2="61.3066" y1="194.1992" y2="194.1992"/><!--class B--><rect fill="#F8F8F8" filter="url(#fd32d7qpdmm7t)" height="48" id="B" style="stroke: #383838; stroke-width: 1.5;" width="39" x="105.8066" y="154.1992"/><ellipse cx="120.8066" cy="170.1992" fill="#C2C2C2" rx="11" ry="11" style="stroke: #383838; stroke-width: 1.0;"/><path d="M123.2797,176.3423 Q122.6987,176.6411 122.0595,176.7905 Q121.4204,176.9399 120.7148,176.9399 Q118.208,176.9399 116.8881,175.2881 Q115.5683,173.6362 115.5683,170.5151 Q115.5683,167.3857 116.8881,165.7339 Q118.208,164.082 120.7148,164.082 Q121.4204,164.082 122.0678,164.2314 Q122.7153,164.3809 123.2797,164.6797 L123.2797,167.4023 Q122.6489,166.8213 122.0554,166.5515 Q121.4619,166.2817 120.831,166.2817 Q119.4863,166.2817 118.8015,167.3484 Q118.1167,168.415 118.1167,170.5151 Q118.1167,172.6069 118.8015,173.6736 Q119.4863,174.7402 120.831,174.7402 Q121.4619,174.7402 122.0554,174.4705 Q122.6489,174.2007 123.2797,173.6196 Z "/><text fill="#000000" font-family="sans-serif" font-size="12" lengthAdjust="spacingAndGlyphs" textLength="7" x="134.8066" y="174.7344">B</text><line style="stroke: #383838; stroke-width: 1.5;" x1="106.8066" x2="143.8066" y1="186.1992" y2="186.1992"/><line style="stroke: #383838; stroke-width: 1.5;" x1="106.8066" x2="143.8066" y1="194.1992" y2="194.1992"/><!--link Main to A--><path d="M53.6031,66.3789 C37.3194,75.3404 18.6018,88.9093 9.3066,107.1992 C1.6606,122.244 9.193,139.3958 18.9796,153.0721 " fill="none" id="Main-A" style="stroke: #383838; stroke-width: 1.0;"/><polygon fill="#383838" points="22.0748,157.1987,19.8744,147.5988,19.0746,153.1988,13.4746,152.3991,22.0748,157.1987" style="stroke: #383838; stroke-width: 1.0;"/><text fill="#000000" font-family="sans-serif" font-size="13" lengthAdjust="spacingAndGlyphs" textLength="26" x="10.3066" y="120.7676">依赖</text><!--link Main to A--><path d="M75.4014,77.3005 C68.6517,97.8788 58.9279,127.5246 51.7662,149.3592 " fill="none" id="Main-A-1" style="stroke: #383838; stroke-width: 1.0; stroke-dasharray: 7.0,7.0;"/><polygon fill="#383838" points="50.1876,154.1719,56.7935,146.867,51.746,149.421,49.192,144.3735,50.1876,154.1719" style="stroke: #383838; stroke-width: 1.0;"/><!--link Main to B--><path d="M91.4047,77.3005 C98.319,97.8788 108.28,127.5246 115.6164,149.3592 " fill="none" id="Main-B" style="stroke: #383838; stroke-width: 1.0;"/><polygon fill="#383838" points="117.2335,154.1719,118.1586,144.3666,115.641,149.4323,110.5753,146.9147,117.2335,154.1719" style="stroke: #383838; stroke-width: 1.0;"/><!--link Main to B--><path d="M106.151,77.4382 C112.9706,86.1603 119.6089,96.5035 123.3066,107.1992 C127.8596,120.3687 128.7828,135.7456 128.3936,148.8153 " fill="none" id="Main-B-1" style="stroke: #383838; stroke-width: 1.0; stroke-dasharray: 7.0,7.0;"/><polygon fill="#383838" points="128.1746,153.8875,132.5592,145.0685,128.3903,148.8922,124.5666,144.7233,128.1746,153.8875" style="stroke: #383838; stroke-width: 1.0;"/><text fill="#000000" font-family="sans-serif" font-size="13" lengthAdjust="spacingAndGlyphs" textLength="26" x="127.3066" y="120.7676">控制</text><!--
@startuml 
skinparam monochrome true
title 依赖与控制
Main - -> A : 依赖
Main - -> B


Main ..> A 
Main ..> B : 控制
@enduml

PlantUML version 1.2019.06(Sat May 25 01:10:25 CST 2019)
(GPL source distribution)
Java Runtime: OpenJDK Runtime Environment
JVM: OpenJDK 64-Bit Server VM
Java Version: 11.0.5+10
Operating System: Mac OS X
OS Version: 10.14.6
Default Encoding: UTF-8
Language: zh
Country: CN
--></g></svg>