<?xml version="1.0" encoding="UTF-8" standalone="no"?><svg xmlns="http://www.w3.org/2000/svg" xmlns:xlink="http://www.w3.org/1999/xlink" contentScriptType="application/ecmascript" contentStyleType="text/css" height="248px" preserveAspectRatio="none" style="width:190px;height:248px;" version="1.1" viewBox="0 0 190 248" width="190px" zoomAndPan="magnify"><defs><filter height="300%" id="f1kr5fy9dckhwt" width="300%" x="-1" y="-1"><feGaussianBlur result="blurOut" stdDeviation="2.0"/><feColorMatrix in="blurOut" result="blurOut2" type="matrix" values="0 0 0 0 0 0 0 0 0 0 0 0 0 0 0 0 0 0 .4 0"/><feOffset dx="4.0" dy="4.0" in="blurOut2" result="blurOut3"/><feBlend in="SourceGraphic" in2="blurOut3" mode="normal"/></filter></defs><g><text fill="#000000" font-family="sans-serif" font-size="18" lengthAdjust="spacingAndGlyphs" textLength="72" x="61" y="17.4023">依赖反转</text><!--cluster MainPkg--><polygon fill="#FFFFFF" filter="url(#f1kr5fy9dckhwt)" points="14,37.1992,82,37.1992,89,59.6875,168,59.6875,168,120.1992,14,120.1992,14,37.1992" style="stroke: #000000; stroke-width: 1.5;"/><line style="stroke: #000000; stroke-width: 1.5;" x1="14" x2="89" y1="59.6875" y2="59.6875"/><text fill="#000000" font-family="sans-serif" font-size="14" font-weight="bold" lengthAdjust="spacingAndGlyphs" textLength="62" x="18" y="52.7344">MainPkg</text><!--class IA--><rect fill="#F8F8F8" filter="url(#f1kr5fy9dckhwt)" height="48" id="IA" style="stroke: #383838; stroke-width: 1.5;" width="43" x="116.5" y="64.1992"/><ellipse cx="131.5" cy="80.1992" fill="#B1B1B1" rx="11" ry="11" style="stroke: #383838; stroke-width: 1.0;"/><path d="M127.9277,76.4644 L127.9277,74.3062 L135.3071,74.3062 L135.3071,76.4644 L132.8418,76.4644 L132.8418,84.541 L135.3071,84.541 L135.3071,86.6992 L127.9277,86.6992 L127.9277,84.541 L130.3931,84.541 L130.3931,76.4644 Z "/><text fill="#000000" font-family="sans-serif" font-size="12" font-style="italic" lengthAdjust="spacingAndGlyphs" textLength="11" x="145.5" y="84.7344">IA</text><line style="stroke: #383838; stroke-width: 1.5;" x1="117.5" x2="158.5" y1="96.1992" y2="96.1992"/><line style="stroke: #383838; stroke-width: 1.5;" x1="117.5" x2="158.5" y1="104.1992" y2="104.1992"/><!--class Main--><rect fill="#F8F8F8" filter="url(#f1kr5fy9dckhwt)" height="48" id="Main" style="stroke: #383838; stroke-width: 1.5;" width="59" x="22.5" y="64.1992"/><ellipse cx="37.5" cy="80.1992" fill="#C2C2C2" rx="11" ry="11" style="stroke: #383838; stroke-width: 1.0;"/><path d="M39.9731,86.3423 Q39.3921,86.6411 38.7529,86.7905 Q38.1138,86.9399 37.4082,86.9399 Q34.9014,86.9399 33.5815,85.2881 Q32.2617,83.6362 32.2617,80.5151 Q32.2617,77.3857 33.5815,75.7339 Q34.9014,74.082 37.4082,74.082 Q38.1138,74.082 38.7612,74.2314 Q39.4087,74.3809 39.9731,74.6797 L39.9731,77.4023 Q39.3423,76.8213 38.7488,76.5515 Q38.1553,76.2817 37.5244,76.2817 Q36.1797,76.2817 35.4949,77.3484 Q34.8101,78.415 34.8101,80.5151 Q34.8101,82.6069 35.4949,83.6736 Q36.1797,84.7402 37.5244,84.7402 Q38.1553,84.7402 38.7488,84.4705 Q39.3423,84.2007 39.9731,83.6196 Z "/><text fill="#000000" font-family="sans-serif" font-size="12" lengthAdjust="spacingAndGlyphs" textLength="27" x="51.5" y="84.7344">Main</text><line style="stroke: #383838; stroke-width: 1.5;" x1="23.5" x2="80.5" y1="96.1992" y2="96.1992"/><line style="stroke: #383838; stroke-width: 1.5;" x1="23.5" x2="80.5" y1="104.1992" y2="104.1992"/><!--class A--><rect fill="#F8F8F8" filter="url(#f1kr5fy9dckhwt)" height="48" id="A" style="stroke: #383838; stroke-width: 1.5;" width="40" x="75" y="189.1992"/><ellipse cx="90" cy="205.1992" fill="#C2C2C2" rx="11" ry="11" style="stroke: #383838; stroke-width: 1.0;"/><path d="M92.4731,211.3423 Q91.8921,211.6411 91.2529,211.7905 Q90.6138,211.9399 89.9082,211.9399 Q87.4014,211.9399 86.0815,210.2881 Q84.7617,208.6362 84.7617,205.5151 Q84.7617,202.3857 86.0815,200.7339 Q87.4014,199.082 89.9082,199.082 Q90.6138,199.082 91.2612,199.2314 Q91.9087,199.3809 92.4731,199.6797 L92.4731,202.4023 Q91.8423,201.8213 91.2488,201.5515 Q90.6553,201.2817 90.0244,201.2817 Q88.6797,201.2817 87.9949,202.3484 Q87.3101,203.415 87.3101,205.5151 Q87.3101,207.6069 87.9949,208.6736 Q88.6797,209.7402 90.0244,209.7402 Q90.6553,209.7402 91.2488,209.4705 Q91.8423,209.2007 92.4731,208.6196 Z "/><text fill="#000000" font-family="sans-serif" font-size="12" lengthAdjust="spacingAndGlyphs" textLength="8" x="104" y="209.7344">A</text><line style="stroke: #383838; stroke-width: 1.5;" x1="76" x2="114" y1="221.1992" y2="221.1992"/><line style="stroke: #383838; stroke-width: 1.5;" x1="76" x2="114" y1="229.1992" y2="229.1992"/><!--link Main to IA--><path d="M81.5625,88.1992 C91.4499,88.1992 101.3372,88.1992 111.2246,88.1992 " fill="none" id="Main-IA" style="stroke: #383838; stroke-width: 1.0;"/><polygon fill="#383838" points="116.395,88.1992,107.395,84.1992,111.395,88.1992,107.395,92.1992,116.395,88.1992" style="stroke: #383838; stroke-width: 1.0;"/><!--link IA to A--><path d="M123.1187,131.4588 C116.4679,150.7924 108.8809,172.8476 103.2654,189.1719 " fill="none" id="IA-A" style="stroke: #383838; stroke-width: 1.0;"/><polygon fill="none" points="116.584,128.9357,129.7092,112.3005,129.8226,133.4898,116.584,128.9357" style="stroke: #383838; stroke-width: 1.0;"/><text fill="#000000" font-family="sans-serif" font-size="13" lengthAdjust="spacingAndGlyphs" textLength="26" x="120" y="155.7676">依赖</text><!--link Main to A--><path d="M60.2908,112.3005 C67.3698,132.8788 77.5679,162.5246 85.079,184.3592 " fill="none" id="Main-A" style="stroke: #383838; stroke-width: 1.0; stroke-dasharray: 7.0,7.0;"/><polygon fill="#383838" points="86.7346,189.1719,87.5894,179.3602,85.1081,184.4438,80.0245,181.9626,86.7346,189.1719" style="stroke: #383838; stroke-width: 1.0;"/><text fill="#000000" font-family="sans-serif" font-size="13" lengthAdjust="spacingAndGlyphs" textLength="26" x="77" y="155.7676">控制</text><!--
@startuml 
skinparam monochrome true
title 依赖反转

package MainPkg {
interface IA
Main -> IA
}
IA <|- - A : 依赖
Main ..> A :控制
@enduml

PlantUML version 1.2019.06(Sat May 25 01:10:25 CST 2019)
(GPL source distribution)
Java Runtime: OpenJDK Runtime Environment
JVM: OpenJDK 64-Bit Server VM
Java Version: 11.0.5+10
Operating System: Mac OS X
OS Version: 10.14.6
Default Encoding: UTF-8
Language: zh
Country: CN
--></g></svg>